<mxfile host="app.diagrams.net" modified="2023-05-13T06:22:11.234Z" agent="Mozilla/5.0 (Windows NT 10.0; Win64; x64) AppleWebKit/537.36 (KHTML, like Gecko) Chrome/113.0.0.0 Safari/537.36" etag="EATDOsq_qvLTgFJtqYU8" version="21.2.9">
  <diagram name="Page-1" id="MqEHJxqcGR0iH7Ui8UXM">
    <mxGraphModel dx="1050" dy="-1623" grid="1" gridSize="10" guides="1" tooltips="1" connect="1" arrows="1" fold="1" page="1" pageScale="1" pageWidth="850" pageHeight="1100" math="0" shadow="0">
      <root>
        <mxCell id="0" />
        <mxCell id="1" parent="0" />
        <mxCell id="JPP7-0GU8lm2cm0_T6wu-148" style="edgeStyle=orthogonalEdgeStyle;rounded=0;orthogonalLoop=1;jettySize=auto;html=1;exitX=0.5;exitY=0;exitDx=0;exitDy=0;entryX=0.5;entryY=0;entryDx=0;entryDy=0;" edge="1" parent="1" source="JPP7-0GU8lm2cm0_T6wu-141" target="JPP7-0GU8lm2cm0_T6wu-142">
          <mxGeometry relative="1" as="geometry" />
        </mxCell>
        <mxCell id="JPP7-0GU8lm2cm0_T6wu-149" style="edgeStyle=orthogonalEdgeStyle;rounded=0;orthogonalLoop=1;jettySize=auto;html=1;exitX=0.5;exitY=0;exitDx=0;exitDy=0;entryX=0.5;entryY=0;entryDx=0;entryDy=0;" edge="1" parent="1" source="JPP7-0GU8lm2cm0_T6wu-141" target="JPP7-0GU8lm2cm0_T6wu-143">
          <mxGeometry relative="1" as="geometry" />
        </mxCell>
        <mxCell id="JPP7-0GU8lm2cm0_T6wu-150" style="edgeStyle=orthogonalEdgeStyle;rounded=0;orthogonalLoop=1;jettySize=auto;html=1;exitX=0.5;exitY=0;exitDx=0;exitDy=0;entryX=0.5;entryY=0;entryDx=0;entryDy=0;" edge="1" parent="1" source="JPP7-0GU8lm2cm0_T6wu-141" target="JPP7-0GU8lm2cm0_T6wu-144">
          <mxGeometry relative="1" as="geometry" />
        </mxCell>
        <mxCell id="JPP7-0GU8lm2cm0_T6wu-151" style="edgeStyle=orthogonalEdgeStyle;rounded=0;orthogonalLoop=1;jettySize=auto;html=1;exitX=0.5;exitY=0;exitDx=0;exitDy=0;entryX=0.5;entryY=0;entryDx=0;entryDy=0;" edge="1" parent="1" source="JPP7-0GU8lm2cm0_T6wu-141" target="JPP7-0GU8lm2cm0_T6wu-145">
          <mxGeometry relative="1" as="geometry" />
        </mxCell>
        <mxCell id="JPP7-0GU8lm2cm0_T6wu-152" style="edgeStyle=orthogonalEdgeStyle;rounded=0;orthogonalLoop=1;jettySize=auto;html=1;exitX=0.5;exitY=0;exitDx=0;exitDy=0;entryX=0.5;entryY=0;entryDx=0;entryDy=0;" edge="1" parent="1" source="JPP7-0GU8lm2cm0_T6wu-141" target="JPP7-0GU8lm2cm0_T6wu-146">
          <mxGeometry relative="1" as="geometry" />
        </mxCell>
        <mxCell id="JPP7-0GU8lm2cm0_T6wu-153" style="edgeStyle=orthogonalEdgeStyle;rounded=0;orthogonalLoop=1;jettySize=auto;html=1;exitX=0.5;exitY=0;exitDx=0;exitDy=0;entryX=0.5;entryY=0;entryDx=0;entryDy=0;" edge="1" parent="1" source="JPP7-0GU8lm2cm0_T6wu-141" target="JPP7-0GU8lm2cm0_T6wu-147">
          <mxGeometry relative="1" as="geometry" />
        </mxCell>
        <mxCell id="JPP7-0GU8lm2cm0_T6wu-141" value="supplier_id" style="rounded=0;whiteSpace=wrap;html=1;fontStyle=5;fontFamily=Courier New;labelBackgroundColor=none;" vertex="1" parent="1">
          <mxGeometry x="5" y="2810" width="120" height="60" as="geometry" />
        </mxCell>
        <mxCell id="JPP7-0GU8lm2cm0_T6wu-164" style="edgeStyle=orthogonalEdgeStyle;rounded=0;orthogonalLoop=1;jettySize=auto;html=1;exitX=0.75;exitY=1;exitDx=0;exitDy=0;entryX=0.189;entryY=1.033;entryDx=0;entryDy=0;entryPerimeter=0;" edge="1" parent="1" source="JPP7-0GU8lm2cm0_T6wu-142" target="JPP7-0GU8lm2cm0_T6wu-141">
          <mxGeometry relative="1" as="geometry">
            <Array as="points">
              <mxPoint x="215" y="2910" />
              <mxPoint x="28" y="2910" />
            </Array>
          </mxGeometry>
        </mxCell>
        <mxCell id="JPP7-0GU8lm2cm0_T6wu-142" value="email_address" style="rounded=0;whiteSpace=wrap;html=1;fontFamily=Courier New;labelBackgroundColor=none;" vertex="1" parent="1">
          <mxGeometry x="125" y="2810" width="120" height="60" as="geometry" />
        </mxCell>
        <mxCell id="JPP7-0GU8lm2cm0_T6wu-143" value="supplier_name" style="rounded=0;whiteSpace=wrap;html=1;fontFamily=Courier New;labelBackgroundColor=none;" vertex="1" parent="1">
          <mxGeometry x="245" y="2810" width="120" height="60" as="geometry" />
        </mxCell>
        <mxCell id="JPP7-0GU8lm2cm0_T6wu-163" style="edgeStyle=orthogonalEdgeStyle;rounded=0;orthogonalLoop=1;jettySize=auto;html=1;exitX=0.75;exitY=1;exitDx=0;exitDy=0;entryX=0.75;entryY=1;entryDx=0;entryDy=0;" edge="1" parent="1" source="JPP7-0GU8lm2cm0_T6wu-144" target="JPP7-0GU8lm2cm0_T6wu-141">
          <mxGeometry relative="1" as="geometry" />
        </mxCell>
        <mxCell id="JPP7-0GU8lm2cm0_T6wu-144" value="contact_no" style="rounded=0;whiteSpace=wrap;html=1;fontFamily=Courier New;labelBackgroundColor=none;" vertex="1" parent="1">
          <mxGeometry x="365" y="2810" width="120" height="60" as="geometry" />
        </mxCell>
        <mxCell id="JPP7-0GU8lm2cm0_T6wu-145" value="street" style="rounded=0;whiteSpace=wrap;html=1;fontFamily=Courier New;labelBackgroundColor=none;" vertex="1" parent="1">
          <mxGeometry x="485" y="2810" width="120" height="60" as="geometry" />
        </mxCell>
        <mxCell id="JPP7-0GU8lm2cm0_T6wu-146" value="city" style="rounded=0;whiteSpace=wrap;html=1;fontFamily=Courier New;labelBackgroundColor=none;" vertex="1" parent="1">
          <mxGeometry x="605" y="2810" width="120" height="60" as="geometry" />
        </mxCell>
        <mxCell id="JPP7-0GU8lm2cm0_T6wu-147" value="state" style="rounded=0;whiteSpace=wrap;html=1;fontFamily=Courier New;labelBackgroundColor=none;" vertex="1" parent="1">
          <mxGeometry x="725" y="2810" width="120" height="60" as="geometry" />
        </mxCell>
        <mxCell id="JPP7-0GU8lm2cm0_T6wu-155" value="" style="endArrow=none;html=1;rounded=0;entryX=0.5;entryY=1;entryDx=0;entryDy=0;" edge="1" parent="1" target="JPP7-0GU8lm2cm0_T6wu-145">
          <mxGeometry width="50" height="50" relative="1" as="geometry">
            <mxPoint x="545" y="2900" as="sourcePoint" />
            <mxPoint x="460" y="2850" as="targetPoint" />
            <Array as="points">
              <mxPoint x="545" y="2890" />
            </Array>
          </mxGeometry>
        </mxCell>
        <mxCell id="JPP7-0GU8lm2cm0_T6wu-156" value="" style="endArrow=none;html=1;rounded=0;" edge="1" parent="1">
          <mxGeometry width="50" height="50" relative="1" as="geometry">
            <mxPoint x="542.5" y="2900" as="sourcePoint" />
            <mxPoint x="787.5" y="2900" as="targetPoint" />
          </mxGeometry>
        </mxCell>
        <mxCell id="JPP7-0GU8lm2cm0_T6wu-157" value="" style="endArrow=none;html=1;rounded=0;entryX=0.5;entryY=1;entryDx=0;entryDy=0;" edge="1" parent="1" target="JPP7-0GU8lm2cm0_T6wu-147">
          <mxGeometry width="50" height="50" relative="1" as="geometry">
            <mxPoint x="785" y="2900" as="sourcePoint" />
            <mxPoint x="790" y="2830" as="targetPoint" />
          </mxGeometry>
        </mxCell>
        <mxCell id="JPP7-0GU8lm2cm0_T6wu-158" value="" style="endArrow=none;html=1;rounded=0;entryX=0.5;entryY=1;entryDx=0;entryDy=0;" edge="1" parent="1" target="JPP7-0GU8lm2cm0_T6wu-146">
          <mxGeometry width="50" height="50" relative="1" as="geometry">
            <mxPoint x="665" y="2900" as="sourcePoint" />
            <mxPoint x="540" y="2780" as="targetPoint" />
          </mxGeometry>
        </mxCell>
        <mxCell id="JPP7-0GU8lm2cm0_T6wu-159" value="" style="edgeStyle=elbowEdgeStyle;elbow=vertical;endArrow=classic;html=1;curved=0;rounded=0;endSize=8;startSize=8;entryX=0.5;entryY=1;entryDx=0;entryDy=0;" edge="1" parent="1" target="JPP7-0GU8lm2cm0_T6wu-141">
          <mxGeometry width="50" height="50" relative="1" as="geometry">
            <mxPoint x="670" y="2900" as="sourcePoint" />
            <mxPoint x="500" y="2910" as="targetPoint" />
            <Array as="points">
              <mxPoint x="660" y="2940" />
              <mxPoint x="350" y="2940" />
            </Array>
          </mxGeometry>
        </mxCell>
        <mxCell id="JPP7-0GU8lm2cm0_T6wu-160" value="" style="edgeStyle=elbowEdgeStyle;elbow=vertical;endArrow=classic;html=1;curved=0;rounded=0;endSize=8;startSize=8;entryX=0.5;entryY=1;entryDx=0;entryDy=0;" edge="1" parent="1" target="JPP7-0GU8lm2cm0_T6wu-142">
          <mxGeometry width="50" height="50" relative="1" as="geometry">
            <mxPoint x="680" y="2900" as="sourcePoint" />
            <mxPoint x="75" y="2880" as="targetPoint" />
            <Array as="points">
              <mxPoint x="380" y="2940" />
              <mxPoint x="360" y="2950" />
            </Array>
          </mxGeometry>
        </mxCell>
        <mxCell id="JPP7-0GU8lm2cm0_T6wu-161" value="" style="edgeStyle=elbowEdgeStyle;elbow=vertical;endArrow=classic;html=1;curved=0;rounded=0;endSize=8;startSize=8;entryX=0.5;entryY=1;entryDx=0;entryDy=0;" edge="1" parent="1" target="JPP7-0GU8lm2cm0_T6wu-143">
          <mxGeometry width="50" height="50" relative="1" as="geometry">
            <mxPoint x="690" y="2900" as="sourcePoint" />
            <mxPoint x="85" y="2890" as="targetPoint" />
            <Array as="points">
              <mxPoint x="500" y="2940" />
              <mxPoint x="370" y="2960" />
            </Array>
          </mxGeometry>
        </mxCell>
        <mxCell id="JPP7-0GU8lm2cm0_T6wu-162" value="" style="edgeStyle=elbowEdgeStyle;elbow=vertical;endArrow=classic;html=1;curved=0;rounded=0;endSize=8;startSize=8;entryX=0.5;entryY=1;entryDx=0;entryDy=0;" edge="1" parent="1" target="JPP7-0GU8lm2cm0_T6wu-144">
          <mxGeometry width="50" height="50" relative="1" as="geometry">
            <mxPoint x="700" y="2900" as="sourcePoint" />
            <mxPoint x="95" y="2900" as="targetPoint" />
            <Array as="points">
              <mxPoint x="570" y="2940" />
              <mxPoint x="380" y="2970" />
            </Array>
          </mxGeometry>
        </mxCell>
      </root>
    </mxGraphModel>
  </diagram>
</mxfile>
